<svg width="101" height="106" viewBox="0 0 101 106" fill="none" xmlns="http://www.w3.org/2000/svg">
<path fill-rule="evenodd" clip-rule="evenodd" d="M44.1854 4.28185C47.1094 -0.432482 53.9687 -0.432501 56.8927 4.28185L61.736 12.0906C62.5212 13.3565 64.1053 13.8712 65.4846 13.3086L73.9928 9.83799C79.1294 7.74272 84.6787 11.7745 84.2733 17.3072L83.6017 26.4714C83.4928 27.9571 84.4718 29.3046 85.9185 29.6601L94.8417 31.8534C100.229 33.1775 102.348 39.701 98.7685 43.9388L92.8386 50.958C91.8772 52.096 91.8772 53.7616 92.8386 54.8995L98.7684 61.9188C102.348 66.1565 100.229 72.6801 94.8417 74.0042L85.9185 76.1975C84.4718 76.553 83.4928 77.9005 83.6017 79.3862L84.2733 88.5504C84.6787 94.0831 79.1294 98.1149 73.9928 96.0196L65.4846 92.549C64.1053 91.9864 62.5212 92.5011 61.736 93.767L56.8927 101.576C53.9687 106.29 47.1094 106.29 44.1854 101.576L39.3421 93.767C38.5569 92.5011 36.9728 91.9864 35.5935 92.549L27.0853 96.0196C21.9487 98.1149 16.3995 94.0831 16.8049 88.5504L17.4764 79.3862C17.5853 77.9005 16.6063 76.553 15.1597 76.1975L6.23647 74.0042C0.849289 72.6801 -1.27036 66.1566 2.30967 61.9188L8.23954 54.8995C9.20089 53.7616 9.20089 52.096 8.23954 50.958L2.30968 43.9388C-1.27035 39.701 0.849267 33.1775 6.23646 31.8534L15.1597 29.6601C16.6063 29.3046 17.5853 27.9571 17.4764 26.4714L16.8049 17.3072C16.3995 11.7745 21.9487 7.74271 27.0853 9.83799L35.5935 13.3086C36.9728 13.8712 38.5569 13.3565 39.3421 12.0906L44.1854 4.28185ZM53.1342 6.61304C51.9399 4.68747 49.1382 4.68746 47.9439 6.61304L43.1006 14.4218C41.1782 17.5212 37.3001 18.7812 33.923 17.4037L25.4149 13.9332C23.3168 13.0773 21.0502 14.7241 21.2158 16.984L21.8873 26.1482C22.1539 29.7856 19.7571 33.0845 16.2153 33.9551L7.29211 36.1483C5.09172 36.6891 4.22595 39.3537 5.68822 41.0846L11.6181 48.1039C13.9717 50.8899 13.9717 54.9676 11.6181 57.7537L5.68821 64.773C4.22595 66.5039 5.09171 69.1685 7.29212 69.7093L16.2153 71.9025C19.7571 72.773 22.1539 76.072 21.8873 79.7094L21.2158 88.8736C21.0502 91.1334 23.3168 92.7802 25.4149 91.9244L33.923 88.4538C37.3001 87.0763 41.1782 88.3364 43.1006 91.4358L47.9439 99.2445C49.1382 101.17 51.9399 101.17 53.1342 99.2445L57.9775 91.4358C59.8999 88.3364 63.7781 87.0763 67.1551 88.4538L75.6633 91.9244C77.7613 92.7802 80.0279 91.1334 79.8623 88.8736L79.1908 79.7094C78.9242 76.072 81.3211 72.773 84.8628 71.9025L93.786 69.7093C95.9864 69.1685 96.8522 66.5039 95.3899 64.773L89.46 57.7537C87.1064 54.9676 87.1064 50.8899 89.46 48.1039L95.3899 41.0846C96.8522 39.3537 95.9864 36.6891 93.786 36.1483L84.8628 33.9551C81.3211 33.0845 78.9242 29.7856 79.1908 26.1482L79.8623 16.984C80.0279 14.7241 77.7613 13.0773 75.6632 13.9332L67.1551 17.4037C63.7781 18.7812 59.8999 17.5212 57.9775 14.4218L53.1342 6.61304Z" fill="black"/>
</svg>
